<svg width="80" height="80" viewBox="0 0 80 80" fill="none" xmlns="http://www.w3.org/2000/svg">
<rect width="80" height="80" fill="#E31C25"/>
<path d="M32.9567 46.9347C30.8353 45.4387 29.2454 43.3061 28.4171 40.846C27.5889 38.3859 27.5654 35.7259 28.3502 33.2516C29.1349 30.7772 30.687 28.6169 32.7817 27.0838C34.8763 25.5506 37.4047 24.7241 40.0005 24.7241C42.5964 24.7241 45.1248 25.5506 47.2194 27.0838C49.3141 28.6169 50.8662 30.7772 51.6509 33.2516C52.4356 35.7259 52.4122 38.3859 51.584 40.846C50.7557 43.3061 49.1657 45.4387 47.0444 46.9347L50.2267 54.2069C50.2778 54.3233 50.2991 54.4507 50.2885 54.5774C50.278 54.704 50.236 54.8261 50.1664 54.9325C50.0967 55.0388 50.0016 55.1261 49.8897 55.1864C49.7778 55.2468 49.6526 55.2782 49.5255 55.2779H30.4741C30.3471 55.2781 30.2222 55.2466 30.1104 55.1864C29.9987 55.1262 29.9037 55.039 29.8341 54.9329C29.7645 54.8267 29.7225 54.7049 29.7118 54.5784C29.7011 54.4519 29.7221 54.3248 29.7728 54.2085L32.9552 46.9347H32.9567ZM43.2463 45.876L45.2813 44.4383C46.8728 43.3166 48.0659 41.7173 48.6875 39.8721C49.3091 38.027 49.3271 36.0318 48.7387 34.1757C48.1504 32.3196 46.9863 30.6991 45.4152 29.549C43.8441 28.3989 41.9476 27.7789 40.0005 27.7789C38.0535 27.7789 36.157 28.3989 34.5859 29.549C33.0148 30.6991 31.8507 32.3196 31.2624 34.1757C30.674 36.0318 30.692 38.027 31.3136 39.8721C31.9352 41.7173 33.1283 43.3166 34.7198 44.4383L36.7533 45.876L33.9773 52.2223H46.0223L43.2463 45.876ZM34.0705 38.4265L37.0344 37.6855C37.1988 38.3476 37.5802 38.9356 38.1176 39.3559C38.655 39.7761 39.3176 40.0044 39.9998 40.0044C40.682 40.0044 41.3446 39.7761 41.882 39.3559C42.4194 38.9356 42.8007 38.3476 42.9652 37.6855L45.9291 38.4265C45.5967 39.7473 44.8329 40.9192 43.7588 41.7565C42.6846 42.5939 41.3617 43.0486 39.9998 43.0486C38.6379 43.0486 37.3149 42.5939 36.2408 41.7565C35.1667 40.9192 34.4028 39.7473 34.0705 38.4265Z" fill="white"/>
</svg>
